<?xml version="1.0" standalone="no"?>
<!DOCTYPE svg PUBLIC "-//W3C//DTD SVG 20010904//EN"
 "http://www.w3.org/TR/2001/REC-SVG-20010904/DTD/svg10.dtd">
<svg version="1.0" xmlns="http://www.w3.org/2000/svg"
 width="500.000000pt" height="500.000000pt" viewBox="0 0 500.000000 500.000000"
 preserveAspectRatio="xMidYMid meet">

<g transform="translate(0.000000,500.000000) scale(0.100000,-0.100000)"
fill="#000000" stroke="none">
<path d="M0 4983 c0 -11 412 -430 1027 -1045 l1028 -1028 -765 0 c-857 0 -802
5 -864 -73 l-31 -39 -3 -149 -3 -149 -195 0 c-187 0 -194 -1 -194 -20 0 -19 7
-20 194 -20 l194 0 4 -129 c3 -127 4 -130 34 -168 62 -78 6 -73 869 -73 l770
0 -1033 -1033 c-567 -567 -1032 -1038 -1032 -1045 0 -6 8 -12 18 -12 9 0 471
454 1062 1045 l1045 1045 182 0 183 0 0 -1045 c0 -1038 0 -1045 20 -1045 20 0
20 7 20 1045 l0 1045 173 0 172 0 1045 -1045 c591 -591 1053 -1045 1062 -1045
10 0 18 6 18 12 0 7 -465 478 -1032 1045 l-1033 1033 770 0 c863 0 807 -5 869
73 30 38 31 41 34 168 l4 129 194 0 c187 0 194 1 194 20 0 19 -7 20 -194 20
l-195 0 -3 149 -3 149 -31 39 c-62 78 -7 73 -864 73 l-765 0 1028 1028 c579
579 1027 1035 1027 1045 0 9 -6 17 -13 17 -6 0 -482 -470 -1057 -1045 l-1045
-1045 -177 0 -178 0 0 1045 c0 1038 0 1045 -20 1045 -20 0 -20 -7 -20 -1045
l0 -1045 -186 0 -186 0 -1048 1042 c-577 574 -1054 1044 -1059 1046 -6 2 -11
-5 -11 -15z m4505 -2133 c61 -38 65 -58 65 -350 0 -292 -4 -312 -65 -350 -32
-20 -45 -20 -2005 -20 -1960 0 -1973 0 -2005 20 -61 38 -65 58 -65 352 0 291
3 307 65 348 30 20 55 20 2004 20 1961 0 1974 0 2006 -20z"/>
<path d="M3650 2803 l1 -38 14 32 c9 22 22 33 42 36 21 3 17 4 -14 6 l-43 1 0
-37z"/>
<path d="M3813 2833 c37 -2 96 -2 130 0 34 2 4 3 -68 3 -71 0 -99 -1 -62 -3z"/>
<path d="M4235 2830 l210 -5 6 -55 6 -55 1 63 2 62 -217 -2 -218 -2 210 -6z"/>
<path d="M3955 2759 c-108 -11 -181 -28 -237 -56 -26 -13 -51 -23 -56 -23 -5
0 -8 18 -6 40 l3 40 -218 0 c-121 0 -226 -3 -235 -6 -44 -17 13 -24 185 -24
176 0 190 -1 187 -17 -3 -16 -23 -18 -234 -21 l-231 -2 -11 -26 c-7 -14 -12
-74 -12 -137 0 -64 -6 -135 -14 -165 -12 -45 -12 -57 0 -80 8 -15 14 -33 14
-39 0 -10 63 -13 283 -13 l282 0 2 187 c2 201 6 218 54 247 34 20 170 68 176
62 3 -2 -21 -41 -52 -86 -113 -165 -173 -334 -130 -370 25 -20 45 -4 45 35 0
72 77 265 141 350 16 22 32 48 35 57 7 20 66 28 106 13 19 -6 31 -6 39 2 16
16 4 43 -18 42 -10 -1 -54 -5 -98 -10z m-634 -128 c17 -17 29 -40 29 -55 0
-23 -4 -26 -38 -26 -26 0 -41 6 -50 20 -25 41 -72 18 -72 -35 0 -52 48 -76 70
-35 7 14 21 20 45 20 39 0 49 -11 41 -46 -16 -61 -147 -88 -202 -41 -20 18
-29 37 -34 73 -13 107 24 154 122 154 52 0 63 -3 89 -29z m237 -8 c3 -32 3
-33 -40 -34 l-43 -1 38 -10 c32 -9 37 -14 37 -39 0 -28 -1 -29 -50 -29 -38 0
-50 -4 -50 -15 0 -12 13 -15 61 -15 l60 0 -3 -32 -3 -33 -100 0 -100 0 -3 109
c-1 61 0 116 2 123 4 11 28 13 98 11 l93 -3 3 -32z"/>
<path d="M520 2495 l0 -265 1271 0 c1206 0 1271 1 1266 18 -4 9 -18 50 -32 91
-21 62 -25 92 -25 186 0 88 -3 115 -15 125 -8 7 -15 19 -15 26 0 11 -153 14
-940 14 -553 0 -940 -4 -940 -9 0 -15 62 -185 72 -196 4 -5 8 35 8 89 l0 97
43 -3 42 -3 2 -85 c0 -47 -1 -106 -4 -132 -5 -46 -6 -48 -35 -48 -32 0 -32 4
-12 -68 6 -22 4 -23 -37 -20 -40 3 -44 6 -58 43 -8 22 -16 42 -17 43 -1 2 -29
-4 -61 -13 -32 -9 -93 -20 -135 -22 -77 -6 -77 -6 -88 -39 -9 -26 -22 -38 -57
-54 -25 -11 -48 -18 -51 -16 -2 3 3 26 12 52 9 26 16 53 16 59 0 7 -22 21 -48
32 -27 11 -65 35 -85 53 -31 26 -37 39 -37 70 0 21 3 46 6 55 10 25 84 71 149
91 l60 19 -100 5 c-85 4 -100 8 -103 23 -3 16 57 17 1158 17 925 0 1161 3
1158 13 -4 9 -252 13 -1186 15 l-1182 2 0 -265z m933 174 c29 -15 56 -50 57
-71 0 -14 -8 -18 -39 -18 -25 0 -41 5 -45 15 -7 19 -46 20 -46 1 0 -9 16 -16
44 -20 61 -10 96 -39 96 -80 0 -98 -151 -140 -222 -63 -45 47 -36 64 32 58 14
-1 29 -7 35 -12 12 -12 55 -12 55 1 0 12 -10 16 -63 25 -53 9 -77 36 -77 85 0
60 33 90 100 90 28 0 61 -5 73 -11z m167 -45 c0 -44 1 -45 28 -42 23 3 28 8
32 43 5 39 6 40 48 43 l43 3 -3 -133 -3 -133 -40 0 -40 0 0 43 c0 33 -4 42
-17 42 -9 0 -23 3 -32 6 -12 5 -15 -4 -18 -43 l-3 -48 -40 0 -40 0 -3 119 c-1
66 0 126 2 133 3 8 22 13 46 13 l40 0 0 -46z m350 43 c0 -2 16 -57 35 -123 19
-65 35 -124 35 -131 0 -8 -13 -13 -35 -13 -29 0 -37 5 -45 25 -8 21 -16 25
-50 25 -34 0 -42 -4 -50 -25 -8 -20 -16 -25 -45 -25 -19 0 -35 4 -35 8 0 4 16
63 35 131 19 67 35 124 35 127 0 2 27 4 60 4 33 0 60 -2 60 -3z m289 -23 c27
-34 28 -94 2 -125 -14 -17 -32 -25 -72 -29 l-54 -5 -3 -42 c-3 -43 -3 -43 -43
-43 l-39 0 0 135 0 135 94 0 c90 0 96 -1 115 -26z m116 -109 l0 -130 -42 -3
-43 -3 0 129 c0 71 3 132 7 136 4 4 23 6 43 4 l35 -3 0 -130z m240 63 c11 -32
22 -58 26 -58 4 0 12 21 19 46 16 57 33 74 72 74 29 0 30 -2 24 -31 l-6 -31
37 32 c33 30 41 32 90 28 75 -6 105 -37 111 -111 2 -31 -1 -63 -8 -76 -28 -53
-120 -77 -178 -47 -38 20 -56 58 -55 117 0 27 -1 49 -2 47 -2 -2 -17 -41 -33
-88 l-29 -85 -44 0 -44 0 -38 110 c-21 60 -35 115 -32 123 3 8 17 12 37 10 30
-3 35 -8 53 -60z"/>
<path d="M1907 2564 c-13 -13 -7 -44 8 -44 16 0 17 5 6 33 -3 10 -10 15 -14
11z"/>
<path d="M2137 2594 c-19 -19 -6 -35 26 -32 39 4 45 32 7 36 -14 2 -29 0 -33
-4z"/>
<path d="M2829 2563 c-14 -38 6 -83 37 -83 26 0 44 26 44 62 0 52 -63 68 -81
21z"/>
<path d="M2903 2748 c2 -7 19 -13 37 -13 18 0 35 6 38 13 2 8 -9 12 -38 12
-29 0 -40 -4 -37 -12z"/>
<path d="M3100 2744 c0 -11 9 -14 37 -12 52 4 56 28 4 28 -30 0 -41 -4 -41
-16z"/>
<path d="M4308 2703 c-44 -46 -136 -180 -170 -248 -31 -62 -76 -135 -84 -135
-19 0 41 183 91 280 15 30 20 72 9 83 -21 21 -174 -97 -174 -135 0 -26 27 -22
34 6 6 24 74 91 83 82 3 -3 -13 -55 -36 -116 -45 -119 -56 -205 -31 -235 24
-29 51 -13 90 55 107 182 192 293 260 340 17 12 21 21 16 38 -11 34 -47 27
-88 -15z"/>
<path d="M890 2680 c0 -6 17 -29 39 -52 l38 -42 34 38 c59 67 59 66 -31 66
-49 0 -80 -4 -80 -10z"/>
<path d="M748 2626 c-86 -31 -119 -75 -97 -128 10 -26 71 -68 97 -68 5 0 24
42 42 93 18 50 35 98 38 105 6 16 -32 15 -80 -2z"/>
<path d="M871 2496 c-33 -88 -32 -89 47 -84 80 6 156 39 148 66 -3 9 -8 29
-12 45 -8 35 -16 34 -54 -9 l-32 -37 -38 38 -38 37 -21 -56z"/>
<path d="M3651 2185 c3 -14 13 -21 34 -22 17 -1 23 0 15 4 -8 3 -23 13 -34 22
-17 15 -18 15 -15 -4z"/>
<path d="M4447 2183 c-4 -3 -7 -11 -7 -17 0 -6 5 -5 12 2 6 6 9 14 7 17 -3 3
-9 2 -12 -2z"/>
</g>
</svg>
